# xmcd CD database file
#
# Track frame offsets:
#	187
#	19677
#	47637
#
# Disc length: 922 seconds
#
# Revision: 0
# Processed by: cddbd v1.5.1PL0 Copyright (c) Steve Scherf et al.
# Submitted via: CDex 1.51
#
DISCID=1a039803
DTITLE=Breathe - Breathe - Hands To Heaven
DYEAR=1900
DGENRE=Rock
TTITLE0=Hands To Heaven
TTITLE1=All That Jazz
TTITLE2=Life And Times
EXTD=
EXTT0=
EXTT1=
EXTT2=
PLAYORDER=
